<svg xmlns="http://www.w3.org/2000/svg" width="100" height="100"><style>.st0,.st2{stroke:#000;stroke-width:.25;stroke-miterlimit:10}.st2{fill:#ccc}.st4{font-family:&apos;ArialMT&apos;}.st5{font-size:5.687px}.st8,.st9{fill:#fff;stroke:#000;stroke-width:.2;stroke-miterlimit:10}.st9{fill:#e5cb2c}</style><g id="Layer_2"><path class="st0" d="M50.1 19.53l-1.03 15.35h2.05zM80.02 50.08l-15.36-1.02v2.05zM19.74 50.08l15.35 1.03v-2.05zM50.1 79.81l1.02-15.36h-2.05zM66.78 33.9l-6.25 4.81 1.45 1.44zM90.1 9.44l-6.26 4.81 1.45 1.45zM66.78 66.3l-4.8-6.26-1.45 1.45zM91.24 90.75l-4.81-6.26-1.45 1.45zM33.25 66.3l6.55-5.1-1.45-1.45zM9.36 90.18l6.55-5.1-1.45-1.45zM34.38 33.9l4.81 6.25 1.45-1.44zM9.93 9.44l4.81 6.26 1.45-1.45z"/><path d="M62.69 46.7c.29 1.08.46 2.21.46 3.38s-.17 2.3-.46 3.38" fill="#ccc"/><path class="st2" d="M11.42 50.08c0-3.47.46-6.82 1.32-10.02L5.05 38a46.75 46.75 0 0 0 0 24.16l7.69-2.06a38.88 38.88 0 0 1-1.32-10.02z"/><path class="st2" d="M22.75 22.74l-5.63-5.63A46.61 46.61 0 0 0 5.05 38l7.69 2.06a38.65 38.65 0 0 1 10.01-17.32zM40.08 12.73l-2.06-7.69a46.61 46.61 0 0 0-20.89 12.07l5.63 5.63a38.5 38.5 0 0 1 17.32-10.01zM77.44 22.74l5.63-5.63A46.6 46.6 0 0 0 62.32 5.08l-2.09 7.68a38.6 38.6 0 0 1 17.21 9.98z"/><path class="st2" d="M87.45 40.06L95.14 38a46.61 46.61 0 0 0-12.07-20.89l-5.63 5.63a38.56 38.56 0 0 1 10.01 17.32zM50.1 11.41a39 39 0 0 1 10.14 1.35l2.09-7.68a46.5 46.5 0 0 0-24.3-.04l2.06 7.69a38.32 38.32 0 0 1 10.01-1.32zM60.12 87.44l2.06 7.69a46.61 46.61 0 0 0 20.89-12.07l-5.63-5.63a38.65 38.65 0 0 1-17.32 10.01z"/><path class="st2" d="M77.44 77.43l5.63 5.63a46.61 46.61 0 0 0 12.07-20.89l-7.69-2.06a38.6 38.6 0 0 1-10.01 17.32zM95.14 38l-7.69 2.06a38.5 38.5 0 0 1 0 20.04l7.69 2.06a46.75 46.75 0 0 0 0-24.16zM12.74 60.11l-7.69 2.06a46.61 46.61 0 0 0 12.07 20.89l5.63-5.63a38.7 38.7 0 0 1-10.01-17.32zM50.1 88.76a39 39 0 0 1-10.14-1.35l-2.09 7.68a46.5 46.5 0 0 0 24.3.04l-2.06-7.69a38.86 38.86 0 0 1-10.01 1.32z"/><path class="st2" d="M22.75 77.43l-5.63 5.63a46.6 46.6 0 0 0 20.75 12.03l2.09-7.68a38.76 38.76 0 0 1-17.21-9.98zM40.87 59.31a13.13 13.13 0 0 1-3.37-5.85M37.5 53.46c-.29-1.08-.46-2.21-.46-3.38s.17-2.3.46-3.38M40.87 40.85c1.6-1.6 3.61-2.76 5.85-3.37M37.5 46.7c.6-2.24 1.77-4.26 3.37-5.85M46.72 37.49a13 13 0 0 1 6.8.01M53.48 62.68a13 13 0 0 1-6.8-.01M46.68 62.67a12.92 12.92 0 0 1-5.81-3.36M60.78 50.08c0 .96-.14 1.88-.37 2.77l2.28.61c.29-1.08.46-2.21.46-3.38s-.17-2.3-.46-3.38l-2.28.61c.24.89.37 1.81.37 2.77z"/><path class="st2" d="M52.86 60.4l.61 2.28c2.24-.6 4.26-1.77 5.85-3.37l-1.67-1.67a10.67 10.67 0 0 1-4.79 2.76zM39.78 52.85l-2.28.61c.6 2.24 1.77 4.26 3.37 5.85l1.67-1.67a10.67 10.67 0 0 1-2.76-4.79zM39.41 50.08c0-.96.14-1.88.37-2.77l-2.28-.61c-.29 1.08-.46 2.21-.46 3.38s.17 2.3.46 3.38l2.28-.61c-.23-.88-.37-1.81-.37-2.77zM47.33 39.77l-.61-2.28c-2.24.6-4.26 1.77-5.85 3.37l1.67 1.67a10.58 10.58 0 0 1 4.79-2.76z"/><path class="st2" d="M42.54 42.53l-1.67-1.67a13.13 13.13 0 0 0-3.37 5.85l2.28.61c.5-1.84 1.45-3.49 2.76-4.79zM50.1 39.4c.97 0 1.91.14 2.8.38l.62-2.28a12.84 12.84 0 0 0-6.8-.01l.61 2.28c.88-.24 1.81-.37 2.77-.37z"/><path class="st2" d="M52.9 39.78c1.82.49 3.46 1.45 4.76 2.75l1.67-1.67a13.07 13.07 0 0 0-5.81-3.36l-.62 2.28zM57.65 57.64l1.67 1.67c1.6-1.6 2.77-3.61 3.37-5.85l-2.28-.61a10.58 10.58 0 0 1-2.76 4.79z"/><path class="st2" d="M60.41 47.32l2.28-.61a12.98 12.98 0 0 0-3.37-5.85l-1.67 1.67a10.58 10.58 0 0 1 2.76 4.79zM50.1 60.77c-.97 0-1.91-.14-2.8-.38l-.62 2.28a12.84 12.84 0 0 0 6.8.01l-.61-2.28c-.89.23-1.81.37-2.77.37zM42.54 57.64l-1.67 1.67a13.07 13.07 0 0 0 5.81 3.36l.62-2.28a10.7 10.7 0 0 1-4.76-2.75z"/><circle cx="50.1" cy="50.08" r="14.79" fill="none" stroke="#000" stroke-miterlimit="10"/><text transform="translate(46.9 9.5)" class="st4 st5">12</text><text transform="translate(91.26 51.57)" class="st4 st5">3</text><text transform="translate(85.58 31.1)" class="st4 st5">2</text><text transform="translate(69.65 15.18)" class="st4 st5">1</text><text transform="translate(85.58 73.18)" class="st4 st5">4</text><text transform="translate(69.65 89.1)" class="st4 st5">5</text><text transform="translate(5.96 51.57)" class="st4 st5">9</text><text transform="translate(9.37 31.1)" class="st4 st5">10</text><text transform="translate(25.3 15.18)" class="st4 st5">11</text><text transform="translate(48.04 94.8)" class="st4 st5">6</text><text transform="translate(27.57 89.1)" class="st4 st5">7</text><text transform="translate(11.65 73.18)" class="st4 st5">8</text></g></svg>