<?xml version="1.0" encoding="utf-8"?>
<!-- Generator: Adobe Illustrator 23.0.1, SVG Export Plug-In . SVG Version: 6.00 Build 0)  -->
<svg version="1.1" xmlns="http://www.w3.org/2000/svg" xmlns:xlink="http://www.w3.org/1999/xlink" x="0px" y="0px" width="100px"
	 height="100px" viewBox="0 0 100 100" style="enable-background:new 0 0 100 100;" xml:space="preserve">
<style type="text/css">
	.st0{stroke:#000000;stroke-width:0.25;stroke-miterlimit:10;}
	.st1{fill:#CCCCCC;}
	.st2{fill:#CCCCCC;stroke:#000000;stroke-width:0.25;stroke-miterlimit:10;}
	.st3{fill:none;stroke:#000000;stroke-miterlimit:10;}
	.st4{font-family:'ArialMT';}
	.st5{font-size:5.687px;}
	.st6{display:none;}
	.st7{display:inline;}
	.st8{fill:#FFFFFF;stroke:#000000;stroke-width:0.2;stroke-miterlimit:10;}
	.st9{fill:#E5CB2C;stroke:#000000;stroke-width:0.2;stroke-miterlimit:10;}
</style>
<g id="Layer_1">
</g>
<g id="Layer_2">
	<g>
		<polygon class="st0" points="50.1,19.53 49.07,34.88 51.12,34.88 		"/>
		<polygon class="st0" points="80.02,50.08 64.66,49.06 64.66,51.11 		"/>
		<polygon class="st0" points="19.74,50.08 35.09,51.11 35.09,49.06 		"/>
		<polygon class="st0" points="50.1,79.81 51.12,64.45 49.07,64.45 		"/>
		<polygon class="st0" points="66.78,33.9 60.53,38.71 61.98,40.15 		"/>
		<polygon class="st0" points="90.1,9.44 83.84,14.25 85.29,15.7 		"/>
		<polygon class="st0" points="66.78,66.3 61.98,60.04 60.53,61.49 		"/>
		<polygon class="st0" points="91.24,90.75 86.43,84.49 84.98,85.94 		"/>
		<polygon class="st0" points="33.25,66.3 39.8,61.2 38.35,59.75 		"/>
		<polygon class="st0" points="9.36,90.18 15.91,85.08 14.46,83.63 		"/>
		<polygon class="st0" points="34.38,33.9 39.19,40.15 40.64,38.71 		"/>
		<polygon class="st0" points="9.93,9.44 14.74,15.7 16.19,14.25 		"/>
		<g>
			<path class="st1" d="M62.69,46.7c0.29,1.08,0.46,2.21,0.46,3.38s-0.17,2.3-0.46,3.38"/>
			<path class="st2" d="M11.42,50.08c0-3.47,0.46-6.82,1.32-10.02L5.05,38c-1.03,3.86-1.59,7.9-1.59,12.08s0.56,8.23,1.59,12.08
				l7.69-2.06C11.89,56.91,11.42,53.55,11.42,50.08z"/>
			<path class="st2" d="M22.75,22.74l-5.63-5.63C11.42,22.81,7.2,29.98,5.05,38l7.69,2.06C14.52,33.41,18.03,27.46,22.75,22.74z"/>
			<path class="st2" d="M40.08,12.73l-2.06-7.69c-8.02,2.15-15.19,6.37-20.89,12.07l5.63,5.63C27.48,18.01,33.42,14.51,40.08,12.73z
				"/>
			<path class="st2" d="M77.44,22.74l5.63-5.63c-5.67-5.67-12.79-9.87-20.75-12.03l-2.09,7.68C66.84,14.55,72.74,18.04,77.44,22.74z
				"/>
			<path class="st2" d="M87.45,40.06L95.14,38c-2.15-8.02-6.37-15.19-12.07-20.89l-5.63,5.63C82.17,27.46,85.67,33.41,87.45,40.06z"
				/>
			<path class="st2" d="M50.1,11.41c3.51,0,6.9,0.48,10.14,1.35l2.09-7.68c-3.9-1.06-7.99-1.63-12.22-1.63
				c-4.18,0-8.23,0.56-12.08,1.59l2.06,7.69C43.27,11.87,46.63,11.41,50.1,11.41z"/>
			<path class="st2" d="M60.12,87.44l2.06,7.69c8.02-2.15,15.19-6.37,20.89-12.07l-5.63-5.63C72.72,82.15,66.77,85.66,60.12,87.44z"
				/>
			<path class="st2" d="M77.44,77.43l5.63,5.63c5.7-5.7,9.92-12.87,12.07-20.89l-7.69-2.06C85.67,66.76,82.17,72.7,77.44,77.43z"/>
			<path class="st2" d="M95.14,38l-7.69,2.06c0.86,3.2,1.32,6.55,1.32,10.02s-0.46,6.82-1.32,10.02l7.69,2.06
				c1.03-3.86,1.59-7.9,1.59-12.08S96.17,41.85,95.14,38z"/>
			<path class="st2" d="M12.74,60.11l-7.69,2.06c2.15,8.02,6.37,15.19,12.07,20.89l5.63-5.63C18.03,72.7,14.52,66.76,12.74,60.11z"
				/>
			<path class="st2" d="M50.1,88.76c-3.51,0-6.9-0.48-10.14-1.35l-2.09,7.68c3.9,1.06,7.99,1.63,12.22,1.63
				c4.18,0,8.23-0.56,12.08-1.59l-2.06-7.69C56.92,88.29,53.56,88.76,50.1,88.76z"/>
			<path class="st2" d="M22.75,77.43l-5.63,5.63c5.67,5.67,12.79,9.87,20.75,12.03l2.09-7.68C33.36,85.61,27.45,82.13,22.75,77.43z"
				/>
			<path class="st2" d="M40.87,59.31c-1.6-1.6-2.76-3.61-3.37-5.85"/>
			<path class="st2" d="M37.5,53.46c-0.29-1.08-0.46-2.21-0.46-3.38s0.17-2.3,0.46-3.38"/>
			<path class="st2" d="M12.74,60.11"/>
			<path class="st2" d="M12.74,40.06"/>
			<path class="st2" d="M40.87,40.85c1.6-1.6,3.61-2.76,5.85-3.37"/>
			<path class="st2" d="M22.75,22.74"/>
			<path class="st2" d="M40.08,12.73"/>
			<path class="st2" d="M37.5,46.7c0.6-2.24,1.77-4.26,3.37-5.85"/>
			<path class="st2" d="M46.72,37.49c1.08-0.29,2.21-0.46,3.38-0.46c1.19,0,2.33,0.17,3.42,0.47"/>
			<path class="st2" d="M53.48,62.68c-1.08,0.29-2.21,0.46-3.38,0.46c-1.18,0-2.33-0.17-3.42-0.47"/>
			<path class="st2" d="M46.68,62.67c-2.23-0.6-4.23-1.77-5.81-3.36"/>
			<path class="st2" d="M60.78,50.08c0,0.96-0.14,1.88-0.37,2.77l2.28,0.61c0.29-1.08,0.46-2.21,0.46-3.38s-0.17-2.3-0.46-3.38
				l-2.28,0.61C60.65,48.2,60.78,49.12,60.78,50.08z"/>
			<path class="st2" d="M52.86,60.4l0.61,2.28c2.24-0.6,4.26-1.77,5.85-3.37l-1.67-1.67C56.35,58.95,54.7,59.9,52.86,60.4z"/>
			<path class="st2" d="M39.78,52.85l-2.28,0.61c0.6,2.24,1.77,4.26,3.37,5.85l1.67-1.67C41.23,56.34,40.28,54.69,39.78,52.85z"/>
			<path class="st2" d="M39.41,50.08c0-0.96,0.14-1.88,0.37-2.77L37.5,46.7c-0.29,1.08-0.46,2.21-0.46,3.38s0.17,2.3,0.46,3.38
				l2.28-0.61C39.55,51.97,39.41,51.04,39.41,50.08z"/>
			<path class="st2" d="M47.33,39.77l-0.61-2.28c-2.24,0.6-4.26,1.77-5.85,3.37l1.67,1.67C43.84,41.22,45.49,40.26,47.33,39.77z"/>
			<path class="st2" d="M42.54,42.53l-1.67-1.67c-1.6,1.6-2.76,3.61-3.37,5.85l2.28,0.61C40.28,45.48,41.23,43.83,42.54,42.53z"/>
			<path class="st2" d="M50.1,39.4c0.97,0,1.91,0.14,2.8,0.38l0.62-2.28c-1.09-0.3-2.23-0.47-3.42-0.47c-1.17,0-2.3,0.17-3.38,0.46
				l0.61,2.28C48.21,39.53,49.14,39.4,50.1,39.4z"/>
			<path class="st2" d="M52.9,39.78c1.82,0.49,3.46,1.45,4.76,2.75l1.67-1.67c-1.59-1.59-3.58-2.75-5.81-3.36L52.9,39.78z"/>
			<path class="st2" d="M57.65,57.64l1.67,1.67c1.6-1.6,2.77-3.61,3.37-5.85l-2.28-0.61C59.92,54.69,58.96,56.34,57.65,57.64z"/>
			<path class="st2" d="M60.41,47.32l2.28-0.61c-0.6-2.24-1.77-4.26-3.37-5.85l-1.67,1.67C58.96,43.83,59.92,45.48,60.41,47.32z"/>
			<path class="st2" d="M50.1,60.77c-0.97,0-1.91-0.14-2.8-0.38l-0.62,2.28c1.09,0.3,2.23,0.47,3.42,0.47c1.17,0,2.3-0.17,3.38-0.46
				l-0.61-2.28C51.98,60.63,51.06,60.77,50.1,60.77z"/>
			<path class="st2" d="M42.54,57.64l-1.67,1.67c1.59,1.59,3.58,2.75,5.81,3.36l0.62-2.28C45.47,59.89,43.84,58.94,42.54,57.64z"/>
			<path class="st2" d="M42.54,57.64"/>
			<path class="st2" d="M39.78,52.85"/>
			<path class="st2" d="M42.54,42.53"/>
			<path class="st2" d="M47.33,39.77"/>
			<path class="st2" d="M47.33,39.77"/>
			<path class="st2" d="M52.9,39.78"/>
			<path class="st2" d="M52.9,39.78"/>
			<path class="st2" d="M57.65,42.53"/>
			<path class="st2" d="M57.65,42.53"/>
			<path class="st2" d="M60.41,47.32"/>
			<path class="st2" d="M52.86,60.4"/>
			<path class="st2" d="M47.3,60.39"/>
			<path class="st2" d="M47.3,60.39"/>
			<path class="st2" d="M42.54,57.64"/>
		</g>
		<circle class="st3" cx="50.1" cy="50.08" r="14.79"/>
		<text transform="matrix(1 0 0 1 46.9058 9.4905)" class="st4 st5">12</text>
		<text transform="matrix(1 0 0 1 91.2646 51.5745)" class="st4 st5">3</text>
		<text transform="matrix(1 0 0 1 85.5771 31.1009)" class="st4 st5">2</text>
		<text transform="matrix(1 0 0 1 69.6533 15.1775)" class="st4 st5">1</text>
		<text transform="matrix(1 0 0 1 85.5771 73.1849)" class="st4 st5">4</text>
		<text transform="matrix(1 0 0 1 69.6533 89.1087)" class="st4 st5">5</text>
		<text transform="matrix(1 0 0 1 5.959 51.5745)" class="st4 st5">9</text>
		<text transform="matrix(1 0 0 1 9.3711 31.1009)" class="st4 st5">10</text>
		<text transform="matrix(1 0 0 1 25.2949 15.1775)" class="st4 st5">11</text>
		<text transform="matrix(1 0 0 1 48.043 94.7952)" class="st4 st5">6</text>
		<text transform="matrix(1 0 0 1 27.5698 89.1087)" class="st4 st5">7</text>
		<text transform="matrix(1 0 0 1 11.646 73.1849)" class="st4 st5">8</text>
	</g>
</g>
<g id="Layer_3" class="st6">
	<g class="st7">
		<path class="st8" d="M50.46,80.98l5.58-30.7h-11.9l5.58,30.7C49.8,81.39,50.39,81.39,50.46,80.98z"/>
		<path class="st9" d="M55.69,48.32l-5.31-29.2c-0.06-0.32-0.51-0.32-0.57,0l-5.31,29.2c-0.22,0.62-0.36,1.27-0.36,1.95
			c0,3.29,2.66,5.95,5.95,5.95s5.95-2.66,5.95-5.95C56.05,49.59,55.91,48.94,55.69,48.32z"/>
		<circle class="st8" cx="50.1" cy="50.28" r="4.46"/>
		<circle class="st9" cx="50.1" cy="50.28" r="2.97"/>
	</g>
</g>
</svg>
