<svg xmlns="http://www.w3.org/2000/svg" style="isolation:isolate" width="612" height="609"><defs><clipPath id="a"><path d="M0 0h612v609H0z"/></clipPath></defs><g clip-path="url(#a)"><path d="M347.3 21.6c26.5 3.9 52.4 11.6 76.8 22.8M188.6 43.6c24.5-11 50.5-18.6 77-22.3M265.7 21.3c27-3.8 54.5-3.7 81.6.3M120 87.5a284 284 0 0 1 68.6-43.9M66.6 148.8A285.6 285.6 0 0 1 120 87.5M492.2 88.5a285.7 285.7 0 0 1 52.8 61.3M545 149.8a282.8 282.8 0 0 1 33.3 73.3M424 44.4a284.4 284.4 0 0 1 68.2 44.1M578.3 223.2a284.3 284.3 0 0 1 11.2 79.3M589.5 302.5c0 27.2-3.9 54.2-11.5 80.3M21.5 302.5c0-27 3.8-54 11.4-79.9M33 222.6c7.5-26 18.9-51 33.6-73.8M491.7 517a284.3 284.3 0 0 1-67.6 43.6M347.1 583.5c-27 4-54.3 4-81.3.2M424 560.6a281.6 281.6 0 0 1-76.9 22.9M544.5 456a285.2 285.2 0 0 1-52.8 61M578 382.8a282.8 282.8 0 0 1-33.5 73.2M67 456.9a282.7 282.7 0 0 1-33.8-73.6M265.8 583.7a282 282 0 0 1-77.2-22.3M33.2 383.3a284 284 0 0 1-11.7-80.8M120.4 517.9a285.4 285.4 0 0 1-53.3-61M431 29.1a299 299 0 0 0-81.4-24M263.3 5c-28.1 4-55.6 12-81.5 23.7M181.8 28.7a301.2 301.2 0 0 0-72.6 46.5M109.2 75.2A302.4 302.4 0 0 0 53 140M559.4 140.5a302.2 302.2 0 0 0-56-64.8M594.9 218.3c-8-27.5-20-53.7-35.5-77.8M503.3 75.7A301.4 301.4 0 0 0 431 29.1M594.9 387.7a302.5 302.5 0 0 0 0-169.4M17.2 218A301 301 0 0 0 5 302.5M52.9 140a299.6 299.6 0 0 0-35.7 78M431.4 576.7a301 301 0 0 0 72-46.4M263.3 601c28.7 4 57.7 4 86.3-.1M349.6 600.8a298.6 298.6 0 0 0 81.8-24.1M503.3 530.3a302.2 302.2 0 0 0 56.1-64.8M559.4 465.5c15.5-24 27.4-50.3 35.5-77.8M17.2 388a299.6 299.6 0 0 0 35.7 78M181.4 577a299 299 0 0 0 82 24M5 302.5v.5c0 28.8 4 57.4 12.2 85M52.9 466c15.6 24.2 34.6 46 56.3 64.8M109.2 530.8c21.8 18.8 46 34.4 72.2 46.3M188.6 561.4a283.8 283.8 0 0 1-68.2-43.5" fill="none" vector-effect="non-scaling-stroke" stroke="#000" stroke-miterlimit="10"/><linearGradient id="b" x1=".5" y1="1" x2=".5" y2="0"><stop offset="0%" stop-color="#fff"/><stop offset="100%"/></linearGradient><path d="M305.5 212c4.7 0 9.4.4 14 1l27.7-191.4c-27-4-54.5-4.1-81.5-.3l27.7 191.5c4-.5 8-.8 12.1-.8h0z" fill="#B1C0C8" vector-effect="non-scaling-stroke" stroke="url(#b)" stroke-miterlimit="10"/><linearGradient id="c" x1="0" y1=".5" x2="0" y2="-.5"><stop offset="0%"/></linearGradient><path d="M293.4 212.8L265.7 21.3a282.2 282.2 0 0 0-77.1 22.3l80.2 176.1a90.1 90.1 0 0 1 24.6-6.9h0z" fill="#B1C0C8" vector-effect="non-scaling-stroke" stroke="url(#c)" stroke-miterlimit="10"/><linearGradient id="d" x1="0" y1=".5" x2="0" y2="-.5"><stop offset="0%"/></linearGradient><path d="M268.8 219.8L188.6 43.6a284 284 0 0 0-68.7 44l126.7 146.2a90.5 90.5 0 0 1 22.2-14z" fill="#B1C0C8" vector-effect="non-scaling-stroke" stroke="url(#d)" stroke-miterlimit="10"/><linearGradient id="e" x1="0" y1=".5" x2="0" y2="-.5"><stop offset="0%"/></linearGradient><path d="M343.9 220.5L424 44.4a281.7 281.7 0 0 0-76.8-22.8L319.5 213a90.1 90.1 0 0 1 24.4 7.4h0z" fill="#B1C0C8" vector-effect="non-scaling-stroke" stroke="url(#e)" stroke-miterlimit="10"/><linearGradient id="f" x1="0" y1=".5" x2="0" y2="-.5"><stop offset="0%"/></linearGradient><path d="M229.4 253.5L66.6 148.8A282.7 282.7 0 0 0 33 222.6l185.7 54.6c2.4-8.4 6-16.4 10.8-23.7h0z" fill="#B1C0C8" vector-effect="non-scaling-stroke" stroke="url(#f)" stroke-miterlimit="10"/><linearGradient id="g" x1="0" y1=".5" x2="0" y2="-.5"><stop offset="0%"/></linearGradient><path d="M382.2 254.4L545 149.8a285.7 285.7 0 0 0-52.7-61.3L365.6 234.8a91 91 0 0 1 16.6 19.6h0z" fill="#B1C0C8" vector-effect="non-scaling-stroke" stroke="url(#g)" stroke-miterlimit="10"/><linearGradient id="h" x1="0" y1=".5" x2="0" y2="-.5"><stop offset="0%"/></linearGradient><path d="M396 302.5h193.5c0-26.8-3.8-53.6-11.3-79.3l-185.6 54.5c2.2 8 3.4 16.4 3.4 24.8z" fill="#B1C0C8" vector-effect="non-scaling-stroke" stroke="url(#h)" stroke-miterlimit="10"/><linearGradient id="i" x1="0" y1=".5" x2="0" y2="-.5"><stop offset="0%"/></linearGradient><path d="M392.6 277.7l185.6-54.5c-7.5-26-18.7-50.7-33.2-73.4L382.2 254.4a90 90 0 0 1 10.4 23.3h0z" fill="#B1C0C8" vector-effect="non-scaling-stroke" stroke="url(#i)" stroke-miterlimit="10"/><linearGradient id="j" x1="0" y1=".5" x2="0" y2="-.5"><stop offset="0%"/></linearGradient><path d="M218.6 277.2L32.9 222.6a284 284 0 0 0-11.4 79.9H215c0-8.6 1.2-17.1 3.6-25.3h0z" fill="#B1C0C8" vector-effect="non-scaling-stroke" stroke="url(#j)" stroke-miterlimit="10"/><linearGradient id="k" x1="0" y1=".5" x2="0" y2="-.5"><stop offset="0%"/></linearGradient><path d="M365.6 234.8L492.2 88.5a284.4 284.4 0 0 0-68.1-44.1l-80.3 176.1a90.5 90.5 0 0 1 21.8 14.3h0z" fill="#B1C0C8" vector-effect="non-scaling-stroke" stroke="url(#k)" stroke-miterlimit="10"/><linearGradient id="l" x1="0" y1=".5" x2="0" y2="-.5"><stop offset="0%"/></linearGradient><path d="M246.6 233.8L119.9 87.5a285.6 285.6 0 0 0-53.3 61.3l162.8 104.7c4.8-7.4 10.5-14 17.2-19.7h0z" fill="#B1C0C8" vector-effect="non-scaling-stroke" stroke="url(#l)" stroke-miterlimit="10"/><linearGradient id="m" x1="0" y1=".5" x2="0" y2="-.5"><stop offset="0%"/></linearGradient><path d="M365 370.6L491.8 517a285.2 285.2 0 0 0 52.8-61L381.7 351.3a91.1 91.1 0 0 1-16.6 19.3h0z" fill="#B1C0C8" vector-effect="non-scaling-stroke" stroke="url(#m)" stroke-miterlimit="10"/><linearGradient id="n" x1="0" y1=".5" x2="0" y2="-.5"><stop offset="0%"/></linearGradient><path d="M343.9 384.5L424 560.6c24.5-11.3 47.3-26 67.6-43.7L365.1 370.6a90.7 90.7 0 0 1-21.3 13.9h0z" fill="#B1C0C8" vector-effect="non-scaling-stroke" stroke="url(#n)" stroke-miterlimit="10"/><linearGradient id="o" x1="0" y1=".5" x2="0" y2="-.5"><stop offset="0%"/></linearGradient><path d="M319.4 392L347 583.4a281.6 281.6 0 0 0 77-22.9l-80.3-176.1a90 90 0 0 1-24.4 7.4z" fill="#B1C0C8" vector-effect="non-scaling-stroke" stroke="url(#o)" stroke-miterlimit="10"/><linearGradient id="p" x1="0" y1=".5" x2="0" y2="-.5"><stop offset="0%"/></linearGradient><path d="M305.5 393c-4 0-8-.3-12-.8l-2.2 15.8-1.8 12-23.7 163.7c27 3.8 54.4 3.7 81.3-.3L319.4 392a91 91 0 0 1-13.9 1.1z" fill="#B1C0C8" vector-effect="non-scaling-stroke" stroke="url(#p)" stroke-miterlimit="10"/><linearGradient id="q" x1="0" y1=".5" x2="0" y2="-.5"><stop offset="0%"/></linearGradient><path d="M381.7 351.3L544.5 456a282.8 282.8 0 0 0 33.5-73.2l-185.7-54.6a90 90 0 0 1-10.6 23.1h0z" fill="#B1C0C8" vector-effect="non-scaling-stroke" stroke="url(#q)" stroke-miterlimit="10"/><linearGradient id="r" x1="0" y1=".5" x2="0" y2="-.5"><stop offset="0%"/></linearGradient><path d="M392.3 328.2L578 382.8c7.6-26.1 11.5-53.1 11.5-80.3H397" fill="#B1C0C8" vector-effect="non-scaling-stroke" stroke="url(#r)" stroke-miterlimit="10"/><linearGradient id="s" x1="0" y1=".5" x2="0" y2="-.5"><stop offset="0%"/></linearGradient><path d="M215 302.5H21.5c0 27.4 4 54.6 11.7 80.8l185.7-54.6a90.6 90.6 0 0 1-3.9-26.2h0z" fill="#B1C0C8" vector-effect="non-scaling-stroke" stroke="url(#s)" stroke-miterlimit="10"/><linearGradient id="t" x1="0" y1=".5" x2="0" y2="-.5"><stop offset="0%"/></linearGradient><path d="M218.9 328.8L33.2 383.3c7.7 26 19.1 50.8 33.9 73.6l162.8-104.7a90 90 0 0 1-11-23.4h0z" fill="#B1C0C8" vector-effect="non-scaling-stroke" stroke="url(#t)" stroke-miterlimit="10"/><linearGradient id="u" x1="0" y1=".5" x2="0" y2="-.5"><stop offset="0%"/></linearGradient><path d="M293.6 392.2a90 90 0 0 1-24.8-7l-80.2 176.2a282 282 0 0 0 77.2 22.3L289.6 420" fill="#B1C0C8" vector-effect="non-scaling-stroke" stroke="url(#u)" stroke-miterlimit="10"/><linearGradient id="v" x1="0" y1=".5" x2="0" y2="-.5"><stop offset="0%"/></linearGradient><path d="M247 371.6L120.5 518a283.8 283.8 0 0 0 68.2 43.5l80.2-176.1c-7.8-3.5-15.2-8.1-21.7-13.7h0z" fill="#B1C0C8" vector-effect="non-scaling-stroke" stroke="url(#v)" stroke-miterlimit="10"/><linearGradient id="w" x1="0" y1=".5" x2="0" y2="-.5"><stop offset="0%"/></linearGradient><path d="M229.9 352.2L67 457a285.4 285.4 0 0 0 53.3 61l126.7-146.3a90.8 90.8 0 0 1-17.2-19.4h0z" fill="#B1C0C8" vector-effect="non-scaling-stroke" stroke="url(#w)" stroke-miterlimit="10"/><path d="M293.4 212.8a90.1 90.1 0 0 0-24.6 7M273.2 229.4c7-3 14.3-5.1 21.8-6.1M268.8 219.8c-8 3.5-15.5 8.3-22.2 14M253.5 241.8a80 80 0 0 1 19.7-12.4M238.3 259.2a80.6 80.6 0 0 1 15.2-17.4M246.6 233.8a90.8 90.8 0 0 0-17.2 19.7M295 223.3a81.5 81.5 0 0 1 23 .3M319.5 213a91.4 91.4 0 0 0-26-.2M225.6 302.5c0-7.6 1-15 3.2-22.4M218.6 277.2a90.5 90.5 0 0 0-3.6 25.3M228.8 280.1a79.7 79.7 0 0 1 9.5-21M229.4 253.5a90.2 90.2 0 0 0-10.8 23.7M373.3 260.1c4 6.4 7 13.3 9.1 20.6M392.6 277.7a90 90 0 0 0-10.4-23.3M343.9 220.5a90.1 90.1 0 0 0-24.4-7.4M318 223.5a79.2 79.2 0 0 1 21.4 6.6M229 325.8a79.8 79.8 0 0 1-3.4-23.3M215 302.5c0 8.9 1.3 17.7 3.9 26.3M358.6 242.8c5.7 5 10.6 10.9 14.7 17.3M382.2 254.4a91 91 0 0 0-16.6-19.6M365.6 234.8a90.5 90.5 0 0 0-21.8-14.3M339.5 230.1a80 80 0 0 1 19.1 12.7M339.5 374.9a79.4 79.4 0 0 1-21.6 6.6M319.4 392a90 90 0 0 0 24.5-7.5M372.8 345.6c-4 6.3-9 12-14.7 17M365 370.6c6.5-5.6 12.1-12 16.7-19.3M343.9 384.5a90.7 90.7 0 0 0 21.2-13.9M358.1 362.6c-5.6 5-11.9 9-18.6 12.3M381.7 351.3a90 90 0 0 0 10.6-23M382.1 325.2c-2 7.2-5.2 14-9.3 20.4M385.4 302.5c0 7.7-1 15.4-3.3 22.7M382.4 280.7c2 7 3 14.4 3 21.8M268.8 385.3a90 90 0 0 0 24.8 7M295 381.7c-7.5-1-14.8-3-21.8-6M238.8 346.5a79.4 79.4 0 0 1-9.8-20.7M218.9 328.8a90 90 0 0 0 11 23.4M247 371.6a90.5 90.5 0 0 0 21.8 13.6M273.2 375.6c-7-3-13.4-7-19.2-12M254 363.6a80 80 0 0 1-15.2-17M229.9 352.2a90.8 90.8 0 0 0 17.2 19.4M317.9 381.5a81.3 81.3 0 0 1-22.8.3M293.6 392.2a92.2 92.2 0 0 0 25.8-.3M225.6 302.5c0 7.9 1.1 15.7 3.4 23.3M229 325.8a79.4 79.4 0 0 0 9.8 20.7M339.5 374.9c6.7-3.2 13-7.3 18.6-12.3M382.1 325.2c2.2-7.3 3.3-15 3.3-22.7M358.1 362.6c5.7-5 10.6-10.6 14.7-17M385.4 302.5a80 80 0 0 0-3-21.8M238.8 346.5a80 80 0 0 0 15.2 17.1M372.8 345.6c4-6.3 7.2-13.2 9.3-20.4M273.2 375.6c7 3.1 14.3 5.2 21.9 6.1M254 363.6c5.8 5 12.3 9 19.2 12M295 381.7a79.5 79.5 0 0 0 22.9-.3M317.9 381.5a79.4 79.4 0 0 0 21.6-6.6" fill="none" vector-effect="non-scaling-stroke" stroke="#000" stroke-miterlimit="10"/><path d="M392.3 328.2c2.5-8.3 3.7-17 3.7-25.7M396 302.5c0-8.4-1.2-16.7-3.4-24.8" fill="#FFF" vector-effect="non-scaling-stroke" stroke="#000" stroke-miterlimit="10"/><path vector-effect="non-scaling-stroke" stroke="#000" stroke-miterlimit="10" d="M392.5 277.5l84 25"/><path vector-effect="non-scaling-stroke" stroke="#000" stroke-linejoin="round" stroke-linecap="round" d="M408.5 323.6l-6 1.8M444.5 312.4l-6 1.9M456.5 308.7l-6 1.9M450.5 310.6l-6 1.8M438.5 314.3l-6 1.8M402.5 325.4l-6 1.9M432.5 316.1l-6 1.9M420.5 319.8l-6 1.9M414.5 321.7l-6 1.9M426.5 318l-6 1.8M474.5 303.1l2-.6M474.5 303.1l-6 1.9M462.5 306.8l-6 1.9M468.5 305l-6 1.8M396.5 327.3l-4 1.2M396.5 303v24.3M402.5 303v22.4M408.5 303v20.6M414.5 303v18.7M420.5 303v16.8M426.5 303v15M432.5 303v13.1M438.5 303v11.3M444.5 303v9.4M450.5 303v7.6M456.5 303v5.7M462.5 303v3.8M468.5 303v2M474.5 303v.1"/><path vector-effect="non-scaling-stroke" stroke="#000" stroke-miterlimit="10" d="M331 389l-25 84"/><path vector-effect="non-scaling-stroke" stroke="#000" stroke-linejoin="round" stroke-linecap="round" d="M284.9 405l-1.8-6M296.1 441l-1.9-6M299.8 453l-1.9-6M297.9 447l-1.8-6M294.2 435l-1.8-6M283.1 399l-1.9-6M292.4 429l-1.9-6M288.7 417l-1.9-6M286.8 411l-1.9-6M290.5 423l-1.8-6M306 473l-.6-2M305.4 471l-1.9-6M301.7 459l-1.9-6M303.5 465l-1.8-6M281.2 393l-1.2-4M305.5 393h-24.3M305.5 399h-22.4M305.5 405H285M305.5 411h-18.7M305.5 417h-16.8M305.5 423h-15M305.5 429h-13.1M305.5 435h-11.3M305.5 441h-9.4M305.5 447H298M305.5 453h-5.7M305.5 459h-3.8M305.5 465h-2M305.5 471h-.1"/><path vector-effect="non-scaling-stroke" stroke="#000" stroke-miterlimit="10" d="M306.5 473.5l-1-80M280 215.5l25-84"/><path vector-effect="non-scaling-stroke" stroke="#000" stroke-linejoin="round" stroke-linecap="round" d="M327.1 199.5l1.8 6M315.9 163.5l1.9 6M312.2 151.5l1.9 6M314.1 157.5l1.8 6M317.8 169.5l1.8 6M328.9 205.5l1.9 6M319.6 175.5l1.9 6M323.3 187.5l1.9 6M325.2 193.5l1.9 6M321.5 181.5l1.8 6M306 131.5l.6 2M306.6 133.5l1.9 6M310.3 145.5l1.9 6M308.5 139.5l1.8 6M330.8 211.5l1.2 4M306.5 211.5h24.3M306.5 205.5h22.4M306.5 199.5h20.6M306.5 193.5h18.7M306.5 187.5h16.8M306.5 181.5h15M306.5 175.5h13.1M306.5 169.5h11.3M306.5 163.5h9.4M306.5 157.5h7.6M306.5 151.5h5.7M306.5 145.5h3.8M306.5 139.5h2M306.5 133.5h.1"/><path vector-effect="non-scaling-stroke" stroke="#000" stroke-miterlimit="10" d="M305.5 131l1 80M218.5 327.5l-84-25"/><path vector-effect="non-scaling-stroke" stroke="#000" stroke-linejoin="round" stroke-linecap="round" d="M202.5 281.4l6-1.8M166.5 292.6l6-1.9M154.5 296.3l6-1.9M160.5 294.4l6-1.8M172.5 290.7l6-1.8M208.5 279.6l6-1.9M178.5 288.9l6-1.9M190.5 285.2l6-1.9M196.5 283.3l6-1.9M184.5 287l6-1.8M134.5 302.5l2-.6M136.5 301.9l6-1.9M148.5 298.2l6-1.9M142.5 300l6-1.8M214.5 277.7l4-1.2M214.5 302v-24.3M208.5 302v-22.4M202.5 281.4V302M196.5 302v-18.7M190.5 302v-16.8M184.5 302v-15M178.5 302v-13.1M172.5 302v-11.3M166.5 302v-9.4M160.5 302v-7.6M154.5 302v-5.7M148.5 302v-3.8M142.5 302v-2M136.5 302v-.1"/><circle vector-effect="non-scaling-stroke" cx="305.5" cy="303.5" r="301" fill="none" stroke="#000" stroke-miterlimit="10"/><path vector-effect="non-scaling-stroke" stroke="#000" stroke-miterlimit="10" d="M397 302.5h77.5M137 302h78"/><linearGradient id="x" x1=".5" y1="0" x2=".5" y2="1" gradientTransform="matrix(602 0 0 602 4.5 1.5)" gradientUnits="userSpaceOnUse"><stop offset="0%" stop-color="#fff"/><stop offset="100%" stop-color="#efa43b"/></linearGradient><path d="M305.5 1.5a301 301 0 1 0 0 602 301 301 0 0 0 0-602zm0 584a283 283 0 1 1 0-566 283 283 0 0 1 0 566z" fill="url(#x)" vector-effect="non-scaling-stroke" stroke="#000" stroke-miterlimit="10"/><path d="M305.5 212.5a91 91 0 1 0 0 182 91 91 0 0 0 0-182zm0 171a80 80 0 1 1 0-160 80 80 0 0 1 0 160z" fill="#EFA43B"/><path d="M305.5 212.5a91 91 0 1 0 0 182 91 91 0 0 0 0-182zm0 171a80 80 0 1 1 0-160 80 80 0 0 1 0 160z" fill="none" vector-effect="non-scaling-stroke" stroke="#000" stroke-miterlimit="10"/><linearGradient id="y" x1="0" y1=".5" x2="0" y2="1.5" gradientTransform="matrix(182 0 0 182 214.5 212.5)" gradientUnits="userSpaceOnUse"><stop offset="100%" stop-color="#fff"/><stop offset="100%" stop-color="#fffffe"/></linearGradient><path d="M305.5 212.5a91 91 0 1 0 0 182 91 91 0 0 0 0-182zm0 171a80 80 0 1 1 0-160 80 80 0 0 1 0 160z" fill="url(#y)"/><linearGradient id="z" x1="0" y1=".5" x2="0" y2="-.5" gradientTransform="matrix(158 0 0 158 226.5 224.5)" gradientUnits="userSpaceOnUse"><stop offset="0%" stop-color="#efa43b"/></linearGradient><circle vector-effect="non-scaling-stroke" cx="305.5" cy="303.5" r="79" fill="url(#z)"/></g></svg>