<?xml version="1.0" encoding="utf-8"?>
<!-- Generator: Adobe Illustrator 23.0.1, SVG Export Plug-In . SVG Version: 6.00 Build 0)  -->
<svg version="1.1" xmlns="http://www.w3.org/2000/svg" xmlns:xlink="http://www.w3.org/1999/xlink" x="0px" y="0px" width="100px"
	 height="100px" viewBox="0 0 100 100" style="enable-background:new 0 0 100 100;" xml:space="preserve">
<style type="text/css">
	.st0{fill:none;stroke:#000000;stroke-width:0.25;stroke-miterlimit:10;}
	.st1{stroke:#000000;stroke-width:0.25;stroke-miterlimit:10;}
	.st2{fill:#CCCCCC;}
	.st3{fill:#CCCCCC;stroke:#000000;stroke-width:0.25;stroke-miterlimit:10;}
	.st4{fill:none;stroke:#000000;stroke-miterlimit:10;}
	.st5{display:none;}
	.st6{font-family:'ArialMT';}
	.st7{font-size:5.687px;}
	.st8{display:inline;}
	.st9{fill:#FFFFFF;stroke:#000000;stroke-width:0.2;stroke-miterlimit:10;}
	.st10{fill:#E5CB2C;stroke:#000000;stroke-width:0.2;stroke-miterlimit:10;}
</style>
<g id="Layer_1">
	<g>
		<path class="st0" d="M112.52,50.4c0-3.05,0.41-6,1.16-8.81l-6.76-1.81c-0.91,3.39-1.4,6.95-1.4,10.62s0.49,7.24,1.4,10.62
			l6.76-1.81C112.93,56.4,112.52,53.45,112.52,50.4z"/>
		<path class="st0" d="M122.48,26.36l-4.95-4.95c-5.01,5.01-8.72,11.32-10.61,18.37l6.76,1.81
			C115.25,35.74,118.33,30.51,122.48,26.36z"/>
		<path class="st0" d="M137.71,17.56l-1.81-6.76c-7.05,1.89-13.36,5.6-18.37,10.61l4.95,4.95C126.64,22.2,131.86,19.12,137.71,17.56
			z"/>
		<path class="st0" d="M170.56,26.36l4.95-4.95c-4.98-4.98-11.24-8.68-18.24-10.58l-1.83,6.76
			C161.24,19.16,166.43,22.22,170.56,26.36z"/>
		<path class="st0" d="M179.36,41.59l6.76-1.81c-1.89-7.05-5.6-13.36-10.61-18.37l-4.95,4.95C174.72,30.51,177.8,35.74,179.36,41.59
			z"/>
		<path class="st0" d="M146.52,16.4c3.08,0,6.07,0.42,8.91,1.19l1.83-6.76c-3.43-0.93-7.03-1.43-10.75-1.43
			c-3.68,0-7.24,0.49-10.62,1.4l1.81,6.76C140.52,16.8,143.47,16.4,146.52,16.4z"/>
		<path class="st0" d="M155.33,83.24l1.81,6.76c7.05-1.89,13.36-5.6,18.37-10.61l-4.95-4.95C166.41,78.59,161.18,81.67,155.33,83.24
			z"/>
		<path class="st0" d="M170.56,74.44l4.95,4.95c5.01-5.01,8.72-11.32,10.61-18.37l-6.76-1.81C177.8,65.05,174.72,70.28,170.56,74.44
			z"/>
		<path class="st0" d="M186.12,39.77l-6.76,1.81c0.75,2.81,1.16,5.76,1.16,8.81s-0.41,6-1.16,8.81l6.76,1.81
			c0.91-3.39,1.4-6.95,1.4-10.62S187.03,43.16,186.12,39.77z"/>
		<path class="st0" d="M113.68,59.21l-6.76,1.81c1.89,7.05,5.6,13.36,10.61,18.37l4.95-4.95C118.33,70.28,115.25,65.05,113.68,59.21
			z"/>
		<path class="st0" d="M146.52,84.4c-3.08,0-6.07-0.42-8.91-1.19l-1.83,6.76c3.43,0.93,7.03,1.43,10.75,1.43
			c3.68,0,7.24-0.49,10.62-1.4l-1.81-6.76C152.52,83.99,149.57,84.4,146.52,84.4z"/>
		<path class="st0" d="M122.48,74.44l-4.95,4.95c4.98,4.98,11.24,8.68,18.24,10.58l1.83-6.76C131.8,81.64,126.61,78.57,122.48,74.44
			z"/>
		<path class="st0" d="M113.68,59.21c1.56,5.85,4.64,11.08,8.8,15.23l24.04-24.04L113.68,59.21z"/>
		<path class="st0" d="M113.68,41.59c-0.75,2.81-1.16,5.76-1.16,8.81s0.41,6,1.16,8.81l32.84-8.81L113.68,41.59z"/>
		<path class="st0" d="M137.71,17.56c-5.85,1.56-11.08,4.64-15.23,8.8l24.04,24.04L137.71,17.56z"/>
		<path class="st0" d="M122.48,26.36c-4.16,4.16-7.23,9.38-8.8,15.23l32.84,8.81L122.48,26.36z"/>
		<path class="st0" d="M155.43,17.59c-2.84-0.77-5.83-1.19-8.91-1.19c-3.05,0-6,0.41-8.81,1.16l8.81,32.84L155.43,17.59z"/>
		<path class="st0" d="M170.56,26.36c-4.13-4.13-9.32-7.2-15.13-8.77l-8.91,32.81L170.56,26.36z"/>
		<path class="st0" d="M170.56,74.44c4.16-4.16,7.23-9.38,8.8-15.23l-32.84-8.81L170.56,74.44z"/>
		<path class="st0" d="M146.52,50.4l32.84-8.81c-1.56-5.85-4.64-11.08-8.8-15.23L146.52,50.4z"/>
		<path class="st0" d="M137.61,83.21c2.84,0.77,5.83,1.19,8.91,1.19c3.05,0,6-0.41,8.81-1.16l-8.81-32.84L137.61,83.21z"/>
		<path class="st0" d="M122.48,74.44c4.13,4.13,9.32,7.2,15.13,8.77l8.91-32.81L122.48,74.44z"/>
	</g>
	<circle class="st0" cx="146.52" cy="50.4" r="9.4"/>
	<circle class="st0" cx="146.52" cy="50.4" r="11.48"/>
</g>
<g id="Layer_2">
	<g>
		<polygon class="st1" points="50.1,19.81 49.07,35.16 51.12,35.16 		"/>
		<polygon class="st1" points="80.02,50.37 64.66,49.34 64.66,51.39 		"/>
		<polygon class="st1" points="19.74,50.37 35.09,51.39 35.09,49.34 		"/>
		<polygon class="st1" points="50.1,80.09 51.12,64.74 49.07,64.74 		"/>
		<polygon class="st1" points="66.78,34.18 60.53,38.99 61.98,40.44 		"/>
		<polygon class="st1" points="90.1,9.73 83.84,14.53 85.29,15.98 		"/>
		<polygon class="st1" points="66.78,66.58 61.98,60.32 60.53,61.77 		"/>
		<polygon class="st1" points="91.24,91.03 86.43,84.78 84.98,86.23 		"/>
		<polygon class="st1" points="33.25,66.58 39.8,61.48 38.35,60.03 		"/>
		<polygon class="st1" points="9.36,90.47 15.91,85.36 14.46,83.92 		"/>
		<polygon class="st1" points="34.38,34.18 39.19,40.44 40.64,38.99 		"/>
		<polygon class="st1" points="9.93,9.73 14.74,15.98 16.19,14.53 		"/>
		<g>
			<path class="st2" d="M62.69,46.99c0.29,1.08,0.46,2.21,0.46,3.38c0,1.17-0.17,2.3-0.46,3.38"/>
			<path class="st3" d="M11.42,50.37c0-3.47,0.46-6.82,1.32-10.02l-7.69-2.06c-1.03,3.86-1.59,7.9-1.59,12.08s0.56,8.23,1.59,12.08
				l7.69-2.06C11.89,57.19,11.42,53.83,11.42,50.37z"/>
			<path class="st3" d="M22.75,23.02l-5.63-5.63c-5.7,5.7-9.92,12.87-12.07,20.89l7.69,2.06C14.52,33.69,18.03,27.75,22.75,23.02z"
				/>
			<path class="st3" d="M40.08,13.01l-2.06-7.69c-8.02,2.15-15.19,6.37-20.89,12.07l5.63,5.63C27.48,18.3,33.42,14.79,40.08,13.01z"
				/>
			<path class="st3" d="M77.44,23.02l5.63-5.63c-5.67-5.67-12.79-9.87-20.75-12.03l-2.09,7.68C66.84,14.84,72.74,18.32,77.44,23.02z
				"/>
			<path class="st3" d="M87.45,40.34l7.69-2.06c-2.15-8.02-6.37-15.19-12.07-20.89l-5.63,5.63C82.17,27.75,85.67,33.69,87.45,40.34z
				"/>
			<path class="st3" d="M50.1,11.69c3.51,0,6.9,0.48,10.14,1.35l2.09-7.68c-3.9-1.06-7.99-1.63-12.22-1.63
				c-4.18,0-8.23,0.56-12.08,1.59l2.06,7.69C43.27,12.16,46.63,11.69,50.1,11.69z"/>
			<path class="st3" d="M60.12,87.72l2.06,7.69c8.02-2.15,15.19-6.37,20.89-12.07l-5.63-5.63C72.72,82.44,66.77,85.94,60.12,87.72z"
				/>
			<path class="st3" d="M77.44,77.71l5.63,5.63c5.7-5.7,9.92-12.87,12.07-20.89l-7.69-2.06C85.67,67.04,82.17,72.99,77.44,77.71z"/>
			<path class="st3" d="M95.14,38.28l-7.69,2.06c0.86,3.2,1.32,6.55,1.32,10.02c0,3.47-0.46,6.82-1.32,10.02l7.69,2.06
				c1.03-3.86,1.59-7.9,1.59-12.08S96.17,42.14,95.14,38.28z"/>
			<path class="st3" d="M12.74,60.39l-7.69,2.06c2.15,8.02,6.37,15.19,12.07,20.89l5.63-5.63C18.03,72.99,14.52,67.04,12.74,60.39z"
				/>
			<path class="st3" d="M50.1,89.04c-3.51,0-6.9-0.48-10.14-1.35l-2.09,7.68C41.77,96.43,45.87,97,50.1,97
				c4.18,0,8.23-0.56,12.08-1.59l-2.06-7.69C56.92,88.57,53.56,89.04,50.1,89.04z"/>
			<path class="st3" d="M22.75,77.71l-5.63,5.63c5.67,5.67,12.79,9.87,20.75,12.03l2.09-7.68C33.36,85.9,27.45,82.41,22.75,77.71z"
				/>
			<path class="st3" d="M40.87,59.6c-1.6-1.6-2.76-3.61-3.37-5.85"/>
			<path class="st3" d="M37.5,53.75c-0.29-1.08-0.46-2.21-0.46-3.38c0-1.17,0.17-2.3,0.46-3.38"/>
			<path class="st3" d="M12.74,60.39"/>
			<path class="st3" d="M12.74,40.34"/>
			<path class="st3" d="M40.87,41.14c1.6-1.6,3.61-2.76,5.85-3.37"/>
			<path class="st3" d="M22.75,23.02"/>
			<path class="st3" d="M40.08,13.01"/>
			<path class="st3" d="M37.5,46.99c0.6-2.24,1.77-4.26,3.37-5.85"/>
			<path class="st3" d="M46.72,37.77c1.08-0.29,2.21-0.46,3.38-0.46c1.19,0,2.33,0.17,3.42,0.47"/>
			<path class="st3" d="M53.48,62.96c-1.08,0.29-2.21,0.46-3.38,0.46c-1.18,0-2.33-0.17-3.42-0.47"/>
			<path class="st3" d="M46.68,62.95c-2.23-0.6-4.23-1.77-5.81-3.36"/>
			<path class="st3" d="M60.78,50.37c0,0.96-0.14,1.88-0.37,2.77l2.28,0.61c0.29-1.08,0.46-2.21,0.46-3.38
				c0-1.17-0.17-2.3-0.46-3.38l-2.28,0.61C60.65,48.48,60.78,49.41,60.78,50.37z"/>
			<path class="st3" d="M52.86,60.68l0.61,2.28c2.24-0.6,4.26-1.77,5.85-3.37l-1.67-1.67C56.35,59.23,54.7,60.19,52.86,60.68z"/>
			<path class="st3" d="M39.78,53.13l-2.28,0.61c0.6,2.24,1.77,4.26,3.37,5.85l1.67-1.67C41.23,56.62,40.28,54.97,39.78,53.13z"/>
			<path class="st3" d="M39.41,50.37c0-0.96,0.14-1.88,0.37-2.77l-2.28-0.61c-0.29,1.08-0.46,2.21-0.46,3.38
				c0,1.17,0.17,2.3,0.46,3.38l2.28-0.61C39.55,52.25,39.41,51.33,39.41,50.37z"/>
			<path class="st3" d="M47.33,40.05l-0.61-2.28c-2.24,0.6-4.26,1.77-5.85,3.37l1.67,1.67C43.84,41.5,45.49,40.54,47.33,40.05z"/>
			<path class="st3" d="M42.54,42.81l-1.67-1.67c-1.6,1.6-2.76,3.61-3.37,5.85l2.28,0.61C40.28,45.76,41.23,44.11,42.54,42.81z"/>
			<path class="st3" d="M50.1,39.68c0.97,0,1.91,0.14,2.8,0.38l0.62-2.28c-1.09-0.3-2.23-0.47-3.42-0.47c-1.17,0-2.3,0.17-3.38,0.46
				l0.61,2.28C48.21,39.82,49.14,39.68,50.1,39.68z"/>
			<path class="st3" d="M52.9,40.06c1.82,0.49,3.46,1.45,4.76,2.75l1.67-1.67c-1.59-1.59-3.58-2.75-5.81-3.36L52.9,40.06z"/>
			<path class="st3" d="M57.65,57.92l1.67,1.67c1.6-1.6,2.77-3.61,3.37-5.85l-2.28-0.61C59.92,54.97,58.96,56.62,57.65,57.92z"/>
			<path class="st3" d="M60.41,47.6l2.28-0.61c-0.6-2.24-1.77-4.26-3.37-5.85l-1.67,1.67C58.96,44.11,59.92,45.76,60.41,47.6z"/>
			<path class="st3" d="M50.1,61.05c-0.97,0-1.91-0.14-2.8-0.38l-0.62,2.28c1.09,0.3,2.23,0.47,3.42,0.47c1.17,0,2.3-0.17,3.38-0.46
				l-0.61-2.28C51.98,60.92,51.06,61.05,50.1,61.05z"/>
			<path class="st3" d="M42.54,57.92l-1.67,1.67c1.59,1.59,3.58,2.75,5.81,3.36l0.62-2.28C45.47,60.18,43.84,59.22,42.54,57.92z"/>
			<path class="st3" d="M42.54,57.92"/>
			<path class="st3" d="M39.78,53.13"/>
			<path class="st3" d="M42.54,42.81"/>
			<path class="st3" d="M47.33,40.05"/>
			<path class="st3" d="M47.33,40.05"/>
			<path class="st3" d="M52.9,40.06"/>
			<path class="st3" d="M52.9,40.06"/>
			<path class="st3" d="M57.65,42.81"/>
			<path class="st3" d="M57.65,42.81"/>
			<path class="st3" d="M60.41,47.6"/>
			<path class="st3" d="M52.86,60.68"/>
			<path class="st3" d="M47.3,60.67"/>
			<path class="st3" d="M47.3,60.67"/>
			<path class="st3" d="M42.54,57.92"/>
		</g>
		<circle class="st4" cx="50.1" cy="50.37" r="14.79"/>
		<text transform="matrix(1 0 0 1 46.9058 9.7734)" class="st5 st6 st7">12</text>
		<text transform="matrix(1 0 0 1 91.2646 51.8574)" class="st5 st6 st7">3</text>
		<text transform="matrix(1 0 0 1 85.5771 31.3838)" class="st5 st6 st7">2</text>
		<text transform="matrix(1 0 0 1 69.6533 15.4604)" class="st5 st6 st7">1</text>
		<text transform="matrix(1 0 0 1 85.5771 73.4678)" class="st5 st6 st7">4</text>
		<text transform="matrix(1 0 0 1 69.6533 89.3916)" class="st5 st6 st7">5</text>
		<text transform="matrix(1 0 0 1 5.959 51.8574)" class="st5 st6 st7">9</text>
		<text transform="matrix(1 0 0 1 9.3711 31.3838)" class="st5 st6 st7">10</text>
		<text transform="matrix(1 0 0 1 25.2949 15.4604)" class="st5 st6 st7">11</text>
		<text transform="matrix(1 0 0 1 48.043 95.0781)" class="st5 st6 st7">6</text>
		<text transform="matrix(1 0 0 1 27.5698 89.3916)" class="st5 st6 st7">7</text>
		<text transform="matrix(1 0 0 1 11.646 73.4678)" class="st5 st6 st7">8</text>
	</g>
</g>
<g id="Layer_3" class="st5">
	<g class="st8">
		<path class="st9" d="M50.38,73.43l4.27-23.48h-9.1l4.27,23.48C49.87,73.74,50.32,73.74,50.38,73.43z"/>
		<path class="st10" d="M54.37,48.45l-4.06-22.33c-0.04-0.24-0.39-0.24-0.43,0l-4.06,22.33c-0.16,0.47-0.27,0.97-0.27,1.49
			c0,2.51,2.04,4.55,4.55,4.55c2.51,0,4.55-2.04,4.55-4.55C54.65,49.42,54.54,48.93,54.37,48.45z"/>
		<circle class="st9" cx="50.1" cy="49.95" r="3.41"/>
		<circle class="st10" cx="50.1" cy="49.95" r="2.27"/>
	</g>
</g>
</svg>
