<?xml version="1.0" standalone="no"?><!-- Generator: Gravit.io --><svg xmlns="http://www.w3.org/2000/svg" xmlns:xlink="http://www.w3.org/1999/xlink" style="isolation:isolate" viewBox="0 0 150.949 150.949" width="150.949" height="150.949"><defs><clipPath id="_clipPath_U0l8Ew8nSFBT7TuLG5HVoQpeR33RcMDa"><rect width="150.949" height="150.949"/></clipPath></defs><g clip-path="url(#_clipPath_U0l8Ew8nSFBT7TuLG5HVoQpeR33RcMDa)"><path d=" M 116.727 138.944 L 97.987 124.205 L 96.991 147.878 L 83.205 128.509 L 75.512 150.945 L 67.797 128.516 L 54.029 147.898 L 53.01 124.227 L 34.285 138.984 L 40.044 115.987 L 17.877 124.924 L 29.948 104.465 L 6.135 106.859 L 23.541 90.595 L 0.011 86.25 L 21.34 75.499 L 0 64.768 L 23.526 60.401 L 6.104 44.154 L 29.92 46.524 L 17.828 26.076 L 40.004 34.992 L 34.222 12.001 L 52.962 26.74 L 53.958 3.068 L 67.744 22.436 L 75.437 0 L 83.152 22.429 L 96.92 3.047 L 97.939 26.719 L 116.664 11.961 L 110.905 34.958 L 133.072 26.021 L 121.001 46.48 L 144.814 44.087 L 127.408 60.351 L 150.938 64.695 L 129.609 75.446 L 150.949 86.177 L 127.423 90.544 L 144.845 106.791 L 121.029 104.421 L 133.121 124.869 L 110.945 115.953 L 116.727 138.944 Z " fill="rgb(210,196,104)"/><g transform="matrix(1,0,0,1,89,10.191)"><text transform="matrix(1,0,0,1,0,10.688)" style="font-family:'Open Sans';font-weight:400;font-size:10px;font-style:normal;fill:#000000;stroke:none;">1</text></g><g transform="matrix(1,0,0,1,130,60.191)"><text transform="matrix(1,0,0,1,0,10.688)" style="font-family:'Open Sans';font-weight:400;font-size:10px;font-style:normal;fill:#000000;stroke:none;">5</text></g><g transform="matrix(1,0,0,1,89,126.191)"><text transform="matrix(1,0,0,1,0,10.688)" style="font-family:'Open Sans';font-weight:400;font-size:10px;font-style:normal;fill:#000000;stroke:none;">10</text></g><g transform="matrix(1,0,0,1,22.948,107.191)"><text transform="matrix(1,0,0,1,0,10.688)" style="font-family:'Open Sans';font-weight:400;font-size:10px;font-style:normal;fill:#000000;stroke:none;">14</text></g><g transform="matrix(1,0,0,1,13,45.191)"><text transform="matrix(1,0,0,1,0,10.688)" style="font-family:'Open Sans';font-weight:400;font-size:10px;font-style:normal;fill:#000000;stroke:none;">18</text></g></g></svg>