<svg xmlns="http://www.w3.org/2000/svg" style="isolation:isolate" width="54" height="450"><defs><clipPath id="a"><path d="M0 0h54v450H0z"/></clipPath></defs><g clip-path="url(#a)" stroke="#000" stroke-miterlimit="10"><path vector-effect="non-scaling-stroke" d="M0 224.9L27.4 0M0 224.9L26.8 315"/><path d="M27.1 159h19.1l-.7-6H27.1v6h0zM27 177h21.3l-.7-6H27.1v6h0zM27.1 165H47l-.7-6h-19v6h0zM27.1 171h20.5l-.7-6H27.1v6h0zM27.1 153h18.4l-.7-6H27.2v6h0zM27.2 123H42l-.8-6h-14v6h0zM27.2 129h15.5l-.7-6H27.2v6h0zM27.2 141H44l-.7-6H27.2v6h0zM27.2 135h16.2l-.7-6H27.2v6h0zM27.2 147h17.6l-.7-6H27v6h0zM27 207H52l-.7-6H27v6h0zM27 213h25.6l-.7-6H27v6h0zM27 219h26.3l-.7-6H27v6h0zM27 183h22l-.7-6H27.1v6h0zM26.8 315L54 225H27l-.2 90h0zM27 225h27l-.7-6H27v6h0zM27 189h22.7l-.7-6H27v6h0zM27 195h23.5l-.8-6H27.1v6h0zM27 201h24.2l-.7-6H27v6h0zM27.2 117h14l-.7-6H27.2v6h0zM27.4 27h3.2l-.7-6h-2.5v6h0zM27.4 33h4l-.8-6h-3.2v6h0zM27.4 39H32l-.7-6h-4v6h0zM27.4 21h2.5l-.7-6h-1.8v6h0zM27.3 45h5.4l-.7-6h-4.6v6h0zM27.3 51h6.1l-.7-6h-5.4v6h0zM27.4 3v6h1l-.6-6h-.4 0zM27.4 15h1.8l-.7-6h-1l-.1 6h0zM27.4 0v3h.4l-.4-3h0zM27.2 111h13.3l-.7-6H27.2v6h0zM27.3 87h10.4l-.7-6h-9.7v6h0zM27.2 93h11.2l-.7-6H27.3v6h0zM27.2 99h12l-.8-6H27.2v6h0zM27.3 57h6.9l-.8-6h-6v6h0zM27.2 105h12.6l-.7-6H27.2v6h0zM27.3 81H37l-.7-6h-9v6h0zM27.3 63h7.6l-.7-6h-6.9v6h0zM27.3 69h8.3l-.7-6h-7.6v6h0zM27.3 75h9l-.7-6h-8.3v6h0z" fill="#EFA43B" vector-effect="non-scaling-stroke"/><path d="M17.9 285h9v-6H16.1l1.8 6zM19.7 291h7.2v-6h-9l1.8 6zM16.1 279h10.8v-6H14.3l1.8 6zM26.8 315v-6H25l1.8 6zM21.5 297h5.4v-6h-7.2l1.8 6zM25 309h1.8v-6h-3.5l1.7 6zM23.3 303h3.6v-6h-5.4l1.8 6zM14.3 273H27v-6H12.5l1.8 6zM3.6 237l1.8 6h21.5v-6H3.6zM1.8 231l1.7 6H27v-6H1.8zM4.5 225H0l1.8 6H27v-6H4.5zM9 255h18v-6H7.2l1.7 6zM10.8 261h16.1v-6H9l1.9 6zM12.5 267H27v-6H10.8l1.7 6zM7.2 249H27v-6H5.3l1.8 6zM0 225h27l.4-225L0 225h0z" fill="#EFA43B" vector-effect="non-scaling-stroke"/></g></svg>