<svg xmlns="http://www.w3.org/2000/svg" style="isolation:isolate" width="1269" height="947"><defs><clipPath id="a"><path d="M0 0h1269v947H0z"/></clipPath></defs><g clip-path="url(#a)"><path d="M1113 849l54 48 99 52h11V840l-127 15-37-6z" fill="#AEB390"/><path d="M-29 887l204-202 74 165L85 986l-114 11V887z" fill="#4E5734"/><path d="M-17 375l413 147-11 100-206-17-196-55V375z" fill="#385048"/><path d="M-2 101l376 171L917 42h48l58-42 254 314L-2 386V101z" fill="#AEC9C6"/><path d="M1023 1l95 325.5 159-12.5L1023 1z" fill="#8FB4B4"/><path d="M-29 396l216-137 213 97 212-146 332 186-563 131-410-131z" fill="#80907C"/><path d="M1277 256l-260 126-15-90-158-128-51 22h-54l-9 25H612l348 205 317 19V256z" fill="#355153"/><path d="M496.2 853.2c-4.4-6.2 54.7-119 54.7-119l54.6-45.5 5.6-60L773 607l80.3 6.2 52.4 51.7v34.2l78 101.4 119.4 52.7L542 877l-45.8-23.8z" fill="#4E5734"/><path d="M656.5 545l233.5 1 108.7-28L1276 695s-13.9 186 0 195l-74 59-545.6-404z" fill="#5B7441"/><path d="M1095 659l60 122h152l-54-39-25-5h-21l-112-78zM1024 635l21.6 50h53.4l-75-50z" fill="#3D5247"/><path d="M-29 808l146-203h62l10 66L-7 868l-22-60z" fill="#5E7743"/><path d="M212 580l164 25v66l-108 14-56-105z" fill="#212E2D"/><path d="M285 636l91 35 40 37 11 46-127-24-51-50 36-44z" fill="#355153"/><path d="M300 720l130.6 26.2L481 841l-181-13V720z" fill="#31433D"/><path d="M947 786l144.1-126 86.3 74-9 30 30.6-18 39.7-8 36.3 22v56h-233.8L947 786z" fill="#8F937B"/><path d="M427 754l141-125 47-70 82 99h-41v37l-48 44-42 83.1L457 808l-30-54z" fill="#5E7743"/><path d="M676.5 816.5l43-15-12-40h107l22 27h152l117 52-224 8-46-12-44 4 44-2 45 13 223-2 62 55 87 44L201 949H69l52-62 18.3-51.7L230 830l-87.2-4.9L151 802l10-111-47.5-59.5L152 619l-7-1-37 6-2-2-108-20-1-64 122 14 93 29 73 56 8 19.3-10 10.7-23 7 38.2-5.1L307 690l28 85 170.5 38.5 91 23 80-20z" fill="#AEB390"/><path d="M980.5 779.5h-141l-29-26h-105l54-16-12-4h-33l-31-36 12-10 52 8 92-4-95-1-61-17-27-33 58-4 61 6 116-2 34 33-61 6 46 1 76 44-93 1 16 7 38 3 33 44z" fill="#AEB390"/><path d="M709 398l89-191 151 228-221.8 6-18.2-43z" fill="#80907C"/><path d="M723 466l132-78 422 47v303l-218-161-94 28-228-1-40-128 26-10z" fill="#3A4F40"/><path d="M376 671l233-181 53 13-16 70-37 8-22 27-14 21 1 23-37 33-41 36-38 33-30.6-2.3L392 705l-16-34z" fill="#455E43"/><path d="M660.5 636.5l-52-54 11-71-11-22 142-58h135l-107 24-55 33-8 9 48 67-45 4h47l35 8 1 15 47 24 31 8-3 13h-100l-58-4-58 4z" fill="#AEB390"/><path d="M568.5 690.5l60-10-9 20 11 12-62 12.2v-34.2z" fill="#EFA43B"/><path d="M704.5 775.5l7 21-112 33-86-19 36-35h155z" fill="#AEB390"/><path d="M376 605v-55l147-119 64-64 167 64-146 59-232 115z" fill="#3E5054"/><path d="M507.5 808.5l34-33L447 796l60.5 12.5z" fill="#AEB390"/><path d="M598 336l88 2 47.3 57.8L660 419l-45-5-17-78z" fill="#525E56"/><path d="M559 386l39-50 17 78-56-28z" fill="#868476"/><path d="M625 431c2 0 31-60 31-60h19l9 28 40-19 30 51H625zM523 431l40-50 17 13 19 37h-76z" fill="#8D9689"/><path d="M675 372l22.5 21.6L684 400l-9-28z" fill="#646D5C"/><path d="M376 671v-66l14-17 82-36 136-62-232 181z" fill="#384A4B"/><path d="M1037 506l22 71 218 103V529l-206-58.8-68-26.2-54-9 88 71z" fill="#385048"/><path d="M798 207l225-13 254 204.7V467H975L798 207z" fill="#31433D"/><path d="M930 406l46-15 28-7 38.5-28.5-9 52-1.1 28.2-1.4 20.3-7 7h-56l-38-57z" fill="#586B59"/><path d="M1044 354l-10 44v39l-11 27h96l-9-55-66-55z" fill="#23342F"/><path d="M1051.8 421.5L1277 410v192l-254-138 28.8-42.5z" fill="#2F4440"/><path d="M1149 352l107 19.1v36.4h21l-1.2 55.5H1128l21-111z" fill="#212E2D"/><path d="M1090 463l16-110h38l-9 85 23-21 43 46h-111z" fill="#53705B"/><path d="M986 685l39-50 21 50h-60z" fill="#9CA180"/><path d="M-11 901l80-45 54-6-12 34-29 36-63-9 54 18-17 32-73-6 6-54z" fill="#AEB390"/><path d="M187 259l189 291 68.4-55.3L394 424l6-68-213-97z" fill="#355153"/><path d="M-17 590l125 32-125 180V590z" fill="#455E43"/><path fill="#5D3E00" d="M563.5 690.5h5v177h-5z"/><path d="M743 791.7h53.3l5 30 5 21.6L818 865l-15 11.7-33.3-56.7-16.7 56.7-16.7-6.7 8.4-55-1.7-23.3z" fill="#18211C"/><path d="M739 866.7h14V885l-3.5 8.3-9-2.7-20-14.3 3.5-5.3 4.5-2.7 7 5 3.5-6.6zM803 870l11.7-6.7 8.3 10-10 21.7h-10l-6.7-1.7 1.7-10h8.3V880l-3.3-10z" fill="#533A14"/><path d="M743 791.7h56.7l3.3-60-13.3-16.7-11.7-8.3-18.3 5-10 10-6.7 70z" fill="#80332A"/><path d="M759.7 715l20-8.3v-13.4l-15-20-15 8.4-3.4 20 13.4 13.3z" fill="#AF8A78"/><path d="M749.7 683.3l28.3 23.4 8-18s4.7-29-19-17.7l-17.3 12.3z" fill="#0F2020"/><path d="M745 724.5s13-16.4 21.4 3.7l-8.9 32.3-22.5 23.2-11.5-2 21.2-25.2.4-32z" fill="#91453A"/><path d="M728 775l-6.7 8.3v5l8.4 3.4 6.6-5v-8.4L728 775z" fill="#C08C80"/><path d="M563 690l-66-7 10 20-13 12 69 10v-35z" fill="#EFA43B"/><path d="M722 383l128 46h-96l-32-46z" fill="#4E573C"/><path d="M187 259l209 165v-68l-209-97z" fill="#31433D"/></g></svg>