<?xml version="1.0" encoding="utf-8"?>
<!-- Generator: Adobe Illustrator 23.0.1, SVG Export Plug-In . SVG Version: 6.00 Build 0)  -->
<svg version="1.1" xmlns="http://www.w3.org/2000/svg" xmlns:xlink="http://www.w3.org/1999/xlink" x="0px" y="0px" width="100px"
	 height="100px" viewBox="0 0 100 100" style="enable-background:new 0 0 100 100;" xml:space="preserve">
<style type="text/css">
	.st0{stroke:#000000;stroke-width:0.25;stroke-miterlimit:10;}
	.st1{fill:#CCCCCC;}
	.st2{fill:#CCCCCC;stroke:#000000;stroke-width:0.25;stroke-miterlimit:10;}
	.st3{display:none;fill:none;stroke:#000000;stroke-miterlimit:10;}
	.st4{display:none;}
	.st5{font-family:'ArialMT';}
	.st6{font-size:1.1913px;}
	.st7{fill:none;stroke:#FBAE17;stroke-miterlimit:10;}
	.st8{fill:none;stroke:#FBAE17;stroke-miterlimit:10;stroke-dasharray:3.0107,3.0107;}
	.st9{fill:none;stroke:#E5712C;stroke-miterlimit:10;}
	.st10{fill:none;stroke:#E5712C;stroke-miterlimit:10;stroke-dasharray:3.0332,3.0332;}
	.st11{fill:none;stroke:#E5CB2C;stroke-miterlimit:10;}
	.st12{fill:none;stroke:#E5CB2C;stroke-miterlimit:10;stroke-dasharray:2.9308,2.9308;}
	.st13{fill:#22B573;}
	.st14{fill:#A67C52;stroke:#A67C52;stroke-width:0.25;stroke-miterlimit:10;}
	.st15{fill:#FFFFFF;stroke:#000000;stroke-width:0.2;stroke-miterlimit:10;}
	.st16{fill:#E5CB2C;stroke:#000000;stroke-width:0.2;stroke-miterlimit:10;}
</style>
<g id="Layer_1">
</g>
<g id="Layer_2">
	<polygon class="st0" points="82.23,78.82 82.02,82.03 82.45,82.03 	"/>
	<polygon class="st0" points="88.5,85.22 85.28,85 85.28,85.43 	"/>
	<polygon class="st0" points="75.87,85.22 79.09,85.43 79.09,85 	"/>
	<polygon class="st0" points="82.23,91.44 82.45,88.23 82.02,88.23 	"/>
	<polygon class="st0" points="85.73,81.83 84.42,82.84 84.72,83.14 	"/>
	<polygon class="st0" points="90.61,76.71 89.3,77.71 89.6,78.02 	"/>
	<polygon class="st0" points="85.73,88.61 84.72,87.3 84.42,87.61 	"/>
	<polygon class="st0" points="90.85,93.74 89.84,92.43 89.54,92.73 	"/>
	<polygon class="st0" points="78.7,88.61 80.07,87.55 79.77,87.24 	"/>
	<polygon class="st0" points="73.7,93.62 75.07,92.55 74.77,92.25 	"/>
	<polygon class="st0" points="78.94,81.83 79.95,83.14 80.25,82.84 	"/>
	<polygon class="st0" points="73.82,76.71 74.82,78.02 75.13,77.71 	"/>
	<g>
		<path class="st1" d="M84.87,84.51c0.06,0.23,0.1,0.46,0.1,0.71c0,0.25-0.04,0.48-0.1,0.71"/>
		<path class="st2" d="M74.13,85.22c0-0.73,0.1-1.43,0.28-2.1l-1.61-0.43c-0.22,0.81-0.33,1.66-0.33,2.53s0.12,1.72,0.33,2.53
			l1.61-0.43C74.23,86.65,74.13,85.94,74.13,85.22z"/>
		<path class="st2" d="M76.5,79.49l-1.18-1.18c-1.19,1.19-2.08,2.7-2.53,4.38l1.61,0.43C74.78,81.73,75.51,80.48,76.5,79.49z"/>
		<path class="st2" d="M80.13,77.39l-0.43-1.61c-1.68,0.45-3.18,1.33-4.38,2.53l1.18,1.18C77.49,78.5,78.74,77.77,80.13,77.39z"/>
		<path class="st2" d="M87.96,79.49l1.18-1.18c-1.19-1.19-2.68-2.07-4.35-2.52l-0.44,1.61C85.74,77.78,86.98,78.51,87.96,79.49z"/>
		<path class="st2" d="M90.06,83.12l1.61-0.43c-0.45-1.68-1.33-3.18-2.53-4.38l-1.18,1.18C88.95,80.48,89.68,81.73,90.06,83.12z"/>
		<path class="st2" d="M82.23,77.12c0.73,0,1.45,0.1,2.12,0.28l0.44-1.61c-0.82-0.22-1.67-0.34-2.56-0.34
			c-0.88,0-1.72,0.12-2.53,0.33l0.43,1.61C80.8,77.21,81.51,77.12,82.23,77.12z"/>
		<path class="st2" d="M84.33,93.04l0.43,1.61c1.68-0.45,3.18-1.33,4.38-2.53l-1.18-1.18C86.97,91.94,85.72,92.67,84.33,93.04z"/>
		<path class="st2" d="M87.96,90.95l1.18,1.18c1.19-1.19,2.08-2.7,2.53-4.38l-1.61-0.43C89.68,88.71,88.95,89.96,87.96,90.95z"/>
		<path class="st2" d="M91.67,82.69l-1.61,0.43c0.18,0.67,0.28,1.37,0.28,2.1s-0.1,1.43-0.28,2.1l1.61,0.43
			c0.22-0.81,0.33-1.66,0.33-2.53S91.88,83.49,91.67,82.69z"/>
		<path class="st2" d="M74.41,87.32l-1.61,0.43c0.45,1.68,1.33,3.18,2.53,4.38l1.18-1.18C75.51,89.96,74.78,88.71,74.41,87.32z"/>
		<path class="st2" d="M82.23,93.32c-0.73,0-1.45-0.1-2.12-0.28l-0.44,1.61c0.82,0.22,1.67,0.34,2.56,0.34
			c0.88,0,1.72-0.12,2.53-0.33l-0.43-1.61C83.66,93.22,82.96,93.32,82.23,93.32z"/>
		<path class="st2" d="M76.5,90.95l-1.18,1.18c1.19,1.19,2.68,2.07,4.35,2.52l0.44-1.61C78.72,92.66,77.49,91.93,76.5,90.95z"/>
		<path class="st2" d="M80.3,87.15c-0.33-0.33-0.58-0.76-0.71-1.23"/>
		<path class="st2" d="M79.59,85.93c-0.06-0.23-0.1-0.46-0.1-0.71c0-0.25,0.04-0.48,0.1-0.71"/>
		<path class="st2" d="M74.41,87.32"/>
		<path class="st2" d="M74.41,83.12"/>
		<path class="st2" d="M80.3,83.28c0.33-0.33,0.76-0.58,1.23-0.71"/>
		<path class="st2" d="M76.5,79.49"/>
		<path class="st2" d="M80.13,77.39"/>
		<path class="st2" d="M79.59,84.51c0.13-0.47,0.37-0.89,0.71-1.23"/>
		<path class="st2" d="M81.52,82.58c0.23-0.06,0.46-0.1,0.71-0.1c0.25,0,0.49,0.04,0.72,0.1"/>
		<path class="st2" d="M82.94,87.86c-0.23,0.06-0.46,0.1-0.71,0.1c-0.25,0-0.49-0.04-0.72-0.1"/>
		<path class="st2" d="M81.52,87.86c-0.47-0.13-0.89-0.37-1.22-0.7"/>
		<path class="st2" d="M84.47,85.22c0,0.2-0.03,0.39-0.08,0.58l0.48,0.13c0.06-0.23,0.1-0.46,0.1-0.71c0-0.25-0.04-0.48-0.1-0.71
			l-0.48,0.13C84.44,84.82,84.47,85.02,84.47,85.22z"/>
		<path class="st2" d="M82.81,87.38l0.13,0.48c0.47-0.13,0.89-0.37,1.23-0.71l-0.35-0.35C83.54,87.08,83.2,87.28,82.81,87.38z"/>
		<path class="st2" d="M80.07,85.8l-0.48,0.13c0.13,0.47,0.37,0.89,0.71,1.23l0.35-0.35C80.37,86.53,80.17,86.18,80.07,85.8z"/>
		<path class="st2" d="M79.99,85.22c0-0.2,0.03-0.39,0.08-0.58l-0.48-0.13c-0.06,0.23-0.1,0.46-0.1,0.71c0,0.25,0.04,0.48,0.1,0.71
			l0.48-0.13C80.02,85.61,79.99,85.42,79.99,85.22z"/>
		<path class="st2" d="M81.65,83.06l-0.13-0.48c-0.47,0.13-0.89,0.37-1.23,0.71l0.35,0.35C80.92,83.36,81.27,83.16,81.65,83.06z"/>
		<path class="st2" d="M80.65,83.64l-0.35-0.35c-0.33,0.33-0.58,0.76-0.71,1.23l0.48,0.13C80.17,84.25,80.37,83.91,80.65,83.64z"/>
		<path class="st2" d="M82.23,82.98c0.2,0,0.4,0.03,0.59,0.08l0.13-0.48c-0.23-0.06-0.47-0.1-0.72-0.1c-0.25,0-0.48,0.04-0.71,0.1
			l0.13,0.48C81.84,83.01,82.03,82.98,82.23,82.98z"/>
		<path class="st2" d="M82.82,83.06c0.38,0.1,0.72,0.3,1,0.58l0.35-0.35c-0.33-0.33-0.75-0.58-1.22-0.7L82.82,83.06z"/>
		<path class="st2" d="M83.81,86.8l0.35,0.35c0.33-0.33,0.58-0.76,0.71-1.23l-0.48-0.13C84.29,86.18,84.09,86.53,83.81,86.8z"/>
		<path class="st2" d="M84.39,84.64l0.48-0.13c-0.13-0.47-0.37-0.89-0.71-1.23l-0.35,0.35C84.09,83.91,84.29,84.25,84.39,84.64z"/>
		<path class="st2" d="M82.23,87.46c-0.2,0-0.4-0.03-0.59-0.08l-0.13,0.48c0.23,0.06,0.47,0.1,0.72,0.1c0.25,0,0.48-0.04,0.71-0.1
			l-0.13-0.48C82.63,87.43,82.43,87.46,82.23,87.46z"/>
		<path class="st2" d="M80.65,86.8l-0.35,0.35c0.33,0.33,0.75,0.58,1.22,0.7l0.13-0.48C81.26,87.27,80.92,87.07,80.65,86.8z"/>
		<path class="st2" d="M80.65,86.8"/>
		<path class="st2" d="M80.07,85.8"/>
		<path class="st2" d="M80.65,83.64"/>
		<path class="st2" d="M81.65,83.06"/>
		<path class="st2" d="M81.65,83.06"/>
		<path class="st2" d="M82.82,83.06"/>
		<path class="st2" d="M82.82,83.06"/>
		<path class="st2" d="M83.81,83.64"/>
		<path class="st2" d="M83.81,83.64"/>
		<path class="st2" d="M84.39,84.64"/>
		<path class="st2" d="M82.81,87.38"/>
		<path class="st2" d="M81.65,87.38"/>
		<path class="st2" d="M81.65,87.38"/>
		<path class="st2" d="M80.65,86.8"/>
	</g>
	<circle class="st3" cx="13.23" cy="49.22" r="3.1"/>
	<text transform="matrix(1 0 0 1 12.5635 40.7148)" class="st4 st5 st6">12</text>
	<text transform="matrix(1 0 0 1 21.855 49.5308)" class="st4 st5 st6">3</text>
	<text transform="matrix(1 0 0 1 20.6641 45.2422)" class="st4 st5 st6">2</text>
	<text transform="matrix(1 0 0 1 17.3281 41.9063)" class="st4 st5 st6">1</text>
	<text transform="matrix(1 0 0 1 20.6641 54.0576)" class="st4 st5 st6">4</text>
	<text transform="matrix(1 0 0 1 17.3281 57.3931)" class="st4 st5 st6">5</text>
	<text transform="matrix(1 0 0 1 3.9858 49.5308)" class="st4 st5 st6">9</text>
	<text transform="matrix(1 0 0 1 4.7002 45.2422)" class="st4 st5 st6">10</text>
	<text transform="matrix(1 0 0 1 8.0361 41.9063)" class="st4 st5 st6">11</text>
	<text transform="matrix(1 0 0 1 12.8013 58.584)" class="st4 st5 st6">6</text>
	<text transform="matrix(1 0 0 1 8.5127 57.3931)" class="st4 st5 st6">7</text>
	<text transform="matrix(1 0 0 1 5.1772 54.0576)" class="st4 st5 st6">8</text>
	<g>
		<g>
			<path class="st7" d="M47.5,56.5c0,0,0.47-0.06,1.36-0.61"/>
			<path class="st8" d="M51.23,54.04c2.74-2.58,6.92-7.83,12.27-18.54c7.77-15.55,16.55-19.61,21.02-20.65"/>
			<path class="st7" d="M86.01,14.58c0.95-0.12,1.49-0.08,1.49-0.08"/>
		</g>
	</g>
	<g>
		<g>
			<path class="st9" d="M2.5,87.5c0,0,0,0,0.74-1.3"/>
			<path class="st10" d="M4.75,83.57c1.18-2.07,2.99-5.24,5.75-10.07c6.11-10.69,16.41-17.1,21.29-19.68"/>
			<path class="st9" d="M33.14,53.13C34,52.71,34.5,52.5,34.5,52.5"/>
		</g>
	</g>
	<g>
		<g>
			<path class="st11" d="M10.5,13.5c0,0,0.14,0.52,0.42,1.44"/>
			<path class="st12" d="M11.83,17.72C15.05,27.05,24.3,49.03,41.5,54.5c17.23,5.48,33.43,14.65,38.98,18.9"/>
			<path class="st11" d="M81.61,74.33c0.61,0.55,0.92,0.95,0.89,1.17"/>
		</g>
	</g>
	<g>
		<polygon class="st13" points="73.17,33 70.52,42 75.83,42 		"/>
		<line class="st14" x1="73.17" y1="47" x2="73.17" y2="38"/>
		<line class="st14" x1="73.41" y1="41.81" x2="74.59" y2="40.19"/>
		<line class="st14" x1="73.41" y1="40.81" x2="74.59" y2="39.19"/>
		<line class="st14" x1="72.19" y1="40.41" x2="73" y2="41"/>
		<line class="st14" x1="72.19" y1="39.41" x2="73" y2="40"/>
	</g>
	<g>
		<polygon class="st13" points="37.17,73 34.52,82 39.83,82 		"/>
		<line class="st14" x1="37.17" y1="87" x2="37.17" y2="78"/>
		<line class="st14" x1="37.41" y1="81.81" x2="38.59" y2="80.19"/>
		<line class="st14" x1="37.41" y1="80.81" x2="38.59" y2="79.19"/>
		<line class="st14" x1="36.19" y1="80.41" x2="37" y2="81"/>
		<line class="st14" x1="36.19" y1="79.41" x2="37" y2="80"/>
	</g>
	<g>
		<polygon class="st13" points="31.17,65 28.52,74 33.83,74 		"/>
		<line class="st14" x1="31.17" y1="79" x2="31.17" y2="70"/>
		<line class="st14" x1="31.41" y1="73.81" x2="32.59" y2="72.19"/>
		<line class="st14" x1="31.41" y1="72.81" x2="32.59" y2="71.19"/>
		<line class="st14" x1="30.19" y1="72.41" x2="31" y2="73"/>
		<line class="st14" x1="30.19" y1="71.41" x2="31" y2="72"/>
	</g>
	<g>
		<polygon class="st13" points="25.17,68 22.52,77 27.83,77 		"/>
		<line class="st14" x1="25.17" y1="82" x2="25.17" y2="73"/>
		<line class="st14" x1="25.41" y1="76.81" x2="26.59" y2="75.19"/>
		<line class="st14" x1="25.41" y1="75.81" x2="26.59" y2="74.19"/>
		<line class="st14" x1="24.19" y1="75.41" x2="25" y2="76"/>
		<line class="st14" x1="24.19" y1="74.41" x2="25" y2="75"/>
	</g>
	<g>
		<polygon class="st13" points="31.17,22 28.52,31 33.83,31 		"/>
		<line class="st14" x1="31.17" y1="36" x2="31.17" y2="27"/>
		<line class="st14" x1="31.41" y1="30.81" x2="32.59" y2="29.19"/>
		<line class="st14" x1="31.41" y1="29.81" x2="32.59" y2="28.19"/>
		<line class="st14" x1="30.19" y1="29.41" x2="31" y2="30"/>
		<line class="st14" x1="30.19" y1="28.41" x2="31" y2="29"/>
	</g>
	<g>
		<polygon class="st13" points="44.17,8 41.52,17 46.83,17 		"/>
		<line class="st14" x1="44.17" y1="22" x2="44.17" y2="13"/>
		<line class="st14" x1="44.41" y1="16.81" x2="45.59" y2="15.19"/>
		<line class="st14" x1="44.41" y1="15.81" x2="45.59" y2="14.19"/>
		<line class="st14" x1="43.19" y1="15.41" x2="44" y2="16"/>
		<line class="st14" x1="43.19" y1="14.41" x2="44" y2="15"/>
	</g>
	<g>
		<polygon class="st13" points="53.17,20 50.52,29 55.83,29 		"/>
		<line class="st14" x1="53.17" y1="34" x2="53.17" y2="25"/>
		<line class="st14" x1="53.41" y1="28.81" x2="54.59" y2="27.19"/>
		<line class="st14" x1="53.41" y1="27.81" x2="54.59" y2="26.19"/>
		<line class="st14" x1="52.19" y1="27.41" x2="53" y2="28"/>
		<line class="st14" x1="52.19" y1="26.41" x2="53" y2="27"/>
	</g>
</g>
<g id="Layer_3">
	<g>
		<path class="st15" d="M82.29,91.63l1.17-6.43h-2.49l1.17,6.43C82.15,91.72,82.27,91.72,82.29,91.63z"/>
		<path class="st16" d="M83.38,84.79l-1.11-6.12c-0.01-0.07-0.11-0.07-0.12,0l-1.11,6.12c-0.05,0.13-0.07,0.27-0.07,0.41
			c0,0.69,0.56,1.25,1.25,1.25c0.69,0,1.25-0.56,1.25-1.25C83.46,85.06,83.43,84.92,83.38,84.79z"/>
		<circle class="st15" cx="82.21" cy="85.2" r="0.93"/>
		<circle class="st16" cx="82.21" cy="85.2" r="0.62"/>
	</g>
</g>
<g id="Layer_4">
</g>
</svg>
